<svg width="15" height="21" xmlns="http://www.w3.org/2000/svg"><path d="M7.74 10.81a.367.367 0 1 0 .733-.002.367.367 0 0 0-.734.001zm-.339 0a.705.705 0 1 1 1.41-.001.705.705 0 0 1-1.41 0zm1.747 1.689a.17.17 0 1 0 .339 0 .17.17 0 0 0-.339 0zm-.337 0a.507.507 0 1 1 1.014 0 .507.507 0 0 1-1.014 0zm-2.283.507a.17.17 0 1 0 .339 0 .17.17 0 0 0-.339 0zm-.338 0a.508.508 0 0 1 1.014 0 .507.507 0 0 1-1.014 0zM15 18.67c0 .848-.689 1.538-1.537 1.538H1.538A1.54 1.54 0 0 1 0 18.67c0-.083.016-.164.045-.241l4.13-10.824.006-.051V1.353h-.488a.676.676 0 1 1 0-1.353h1.164c.374 0 .676.303.676.676v6.93c0 .04-.003.079-.01.117 0 .082-.02.193-.049.27l-2.488 6.52h8.97L9.387 8a.69.69 0 0 1-.046-.22l-.006-.04a1.016 1.016 0 0 1-.004-.08V.677c0-.373.302-.676.676-.676H11.2a.676.676 0 1 1 0 1.353h-.519V7.6l4.273 10.823c.03.078.046.163.046.248z" fill="#FFF" fill-rule="evenodd"/></svg>