<svg width="12" height="18" xmlns="http://www.w3.org/2000/svg"><path d="M.933 0a.897.897 0 0 0-.659.274A.92.92 0 0 0 0 .951V17.05c0 .244.098.463.293.659.195.194.408.292.64.292.232 0 .445-.098.64-.292.195-.196.293-.415.293-.659V7.354c.341-.171.646-.256.914-.256.61 0 1.678.397 3.202 1.189S8.586 9.476 9.22 9.476A4.464 4.464 0 0 0 12 8.524V1.902c-.415.318-.732.556-.951.714-.22.158-.506.317-.86.476-.353.158-.677.237-.97.237-.61 0-1.682-.396-3.22-1.19C4.464 1.349 3.39.952 2.78.952c-.22 0-.524.037-.914.11v-.11a.92.92 0 0 0-.275-.677A.897.897 0 0 0 .933 0" fill="#FFF" fill-rule="evenodd"/></svg>