<svg width="176" height="59" xmlns="http://www.w3.org/2000/svg" xmlns:xlink="http://www.w3.org/1999/xlink"><defs><filter x="-50%" y="-50%" width="200%" height="200%" filterUnits="objectBoundingBox" id="a"><feOffset dx="-2" in="SourceAlpha" result="shadowOffsetOuter1"/><feColorMatrix values="0 0 0 0 0 0 0 0 0 0 0 0 0 0 0 0 0 0 0.15 0" in="shadowOffsetOuter1" result="shadowMatrixOuter1"/><feMerge><feMergeNode in="shadowMatrixOuter1"/><feMergeNode in="SourceGraphic"/></feMerge></filter><linearGradient x1="-18.384%" y1="118.346%" x2="91.782%" y2="8.547%" id="b"><stop offset="0%"/><stop stop-color="#FFF" offset="100%"/></linearGradient><path d="M5.442 44.374c.294-.042.42 0 .714 0 1.428 0 2.142.42 3.36 2.646 1.68 3.276 2.688 5.166 3.738 6.51 1.134 1.428 2.142 1.806 3.696 1.806 1.68 0 3.192-.168 3.486-.42l.042-.21c-1.134-1.302-2.268-2.898-4.284-6.342-1.386-2.352-2.646-4.494-3.738-5.46 1.47-.756 4.998-2.604 4.998-6.678 0-5.334-3.444-7.686-10.29-7.686-1.932 0-6.048.462-7.098.714.084 1.176.084 2.184.084 4.242v14.07c0 3.528-.042 6.006-.126 7.686.882 0 3.276-.042 4.452-.168.672-.084.966-.252.966-1.092v-9.618zm0-12.39c.546-.126 1.176-.126 1.764-.126 2.646 0 4.746 1.47 4.746 4.83 0 2.646-1.68 3.906-2.52 4.242-.63.294-2.94.336-3.99.21v-9.156zm25.998 4.032c-5.67 0-9.786 4.158-9.786 9.912 0 5.964 3.99 9.576 9.408 9.576 5.88 0 9.744-4.074 9.744-9.996 0-5.46-3.486-9.492-9.324-9.492h-.042zm-.378 3.36c3.234 0 4.284 3.528 4.284 6.552 0 3.654-1.26 6.216-3.864 6.216-2.394 0-4.368-2.226-4.368-6.762 0-3.402 1.386-6.006 3.906-6.006h.042zM59.832 50.8c-1.05.42-2.73.756-4.578.756-2.856 0-5.922-1.68-5.922-6.048 0-3.57 2.226-5.712 5.208-5.712 1.092 0 2.394.294 3.192.588 1.68.294 2.394-1.302 2.436-2.73-.504-.546-2.562-1.638-5.754-1.638-5.88 0-10.416 4.158-10.416 10.206 0 6.048 4.158 9.282 9.702 9.282 1.89 0 3.654-.378 4.83-1.134.798-.714 1.386-2.226 1.428-3.444l-.126-.126zm8.988-21.42c0-2.562-.168-2.772-.798-2.772-.924 0-3.654.252-4.62.63.084.882.168 2.142.168 4.62v15.708c0 3.486-.042 5.964-.126 7.686 2.184.042 2.982-.042 4.032-.168 1.05-.084 1.344-.252 1.344-1.092v-8.19c1.554 2.772 4.158 5.88 5.67 7.812 1.008 1.344 1.722 1.722 3.108 1.722 1.302 0 2.982-.252 3.738-.588l.084-.168c-2.226-2.562-5.964-7.56-7.266-9.702 1.974-2.184 3.906-4.326 5.796-6.636.924-1.092.756-1.638-.252-1.89-1.05-.252-2.268-.378-3.15-.336-1.008 1.344-5.838 7.35-7.728 9.366V29.38zm29.19 21.126c-.672.336-2.814 1.05-4.914 1.05-2.814 0-5.418-1.428-5.67-4.872 2.226.084 6.678.042 7.728-.21 1.722-.42 3.444-1.092 3.57-1.722.084-.294.126-.798.126-1.386-.042-3.444-2.142-7.35-7.56-7.35-5.712 0-9.03 4.914-9.03 9.954 0 6.216 3.402 9.534 9.576 9.534 1.428 0 3.234-.462 3.864-.714.882-.378 2.394-2.184 2.394-4.116l-.084-.168zm-7.098-11.34c2.058 0 3.024 1.638 2.982 3.612 0 .504-.252.882-.546.882-1.008.084-4.2.126-5.838 0 .126-3.024 1.806-4.494 3.36-4.494h.042zm23.184 11.844c-.504.294-1.68.756-2.94.756-1.428 0-2.562-.756-2.772-2.772-.126-1.722-.21-5.67-.042-9.03 1.68 0 3.108-.084 4.032-.168.84-.084 1.806-.294 2.31-3.276h-6.216c0-1.176.084-2.646.252-3.906-1.554.084-2.52.714-3.234 1.302-.714.546-4.158 3.654-4.788 4.788 0 .504.756 1.26 2.394 1.26v9.828c0 2.982 1.386 5.712 5.712 5.712 1.89 0 3.654-.42 4.662-1.302.798-.714.966-2.058.798-3.108l-.168-.084z" id="d"/><filter x="-50%" y="-50%" width="200%" height="200%" filterUnits="objectBoundingBox" id="c"><feOffset dy="1" in="SourceAlpha" result="shadowOffsetOuter1"/><feColorMatrix values="0 0 0 0 0 0 0 0 0 0 0 0 0 0 0 0 0 0 0.15 0" in="shadowOffsetOuter1"/></filter></defs><g fill="none" fill-rule="evenodd"><g filter="url(#a)" transform="rotate(45 84.094 114.25)"><path d="M63.563 29.254c0 1.444.367 2.725 1.1 3.793L62.1 35.615c-.272.294-.072.497.216.786l2.012 2.003c.277.294.465.475.748.187l2.78-2.778c.624.229 2.121.628 4.385.296l1.74-1.311c.13-.099.357-.245.507-.327l1.563-.855-1.253 1.266c-.12.121-.324.3-.453.398l-1.496 1.127 2.55 6.977a.45.45 0 0 0 .735.171l5.985-5.693a.455.455 0 0 0 .134-.248l1.342-7.499c1.632-1.411 3.284-3.053 4.913-4.882 9.376-10.53 10.775-18.76 10.775-22.728 0-1.307-.159-2.027-.165-2.057a.452.452 0 0 0-.365-.346c-.466-.08-11.581-1.793-26.046 12.662-.018.02-1.897 1.957-3.92 4.674l-7.428 2.065a.451.451 0 0 0-.226.147l-5.284 6.349a.452.452 0 0 0 .221.722l7.1 2.064 1.195-1.375c.106-.122.295-.308.423-.418l1.334-1.143-.945 1.48a4.67 4.67 0 0 1-.356.478l-1.258 1.447zM79.24 13.868c2.348-2.348 5.694-2.81 7.473-1.03 1.78 1.78 1.319 5.125-1.03 7.474-2.348 2.348-5.693 2.809-7.473 1.03-1.78-1.78-1.318-5.126 1.03-7.474z" fill="#FFF"/><path d="M79.225 13.894c2.348-2.349 5.694-2.81 7.473-1.03 1.78 1.78 1.319 5.125-1.03 7.473-2.348 2.349-5.693 2.81-7.473 1.03-1.78-1.78-1.318-5.125 1.03-7.473z" fill-opacity=".1" fill="url(#b)"/><path d="M62.342 40.43L9.359 93.336a.815.815 0 0 1-1.152 0l-.573-.572a.813.813 0 0 1 0-1.15l52.982-52.909a.815.815 0 0 1 1.152 0l.574.573a.813.813 0 0 1 0 1.15m-.762 6.738L8.595 100.074a.815.815 0 0 1-1.152 0l-.573-.573a.813.813 0 0 1 0-1.15l52.983-52.908a.815.815 0 0 1 1.152 0l.573.572a.813.813 0 0 1 0 1.15M2.027 94.388a.817.817 0 0 1-1.152 0L.3 93.816a.813.813 0 0 1 0-1.15l52.983-52.91a.815.815 0 0 1 1.152 0l.574.573a.813.813 0 0 1 0 1.15L2.027 94.39z" fill="#FFF"/></g><g transform="translate(0 -26)"><use fill="#000" filter="url(#c)" xlink:href="#d"/><use fill="#FFF" xlink:href="#d"/></g></g></svg>