<svg viewBox="0 0 482 482" xmlns="http://www.w3.org/2000/svg" fill-rule="evenodd" clip-rule="evenodd" stroke-linejoin="round" stroke-miterlimit="1.414"><circle cx="419" cy="296" r="129" transform="translate(-540.828 -311.443) scale(1.86493)"/><path d="M169.152 137.878c-4.315-4.315-11.322-4.315-15.638 0l-15.638 15.638c-4.316 4.316-4.316 11.323 0 15.639l174.12 174.12c4.316 4.316 11.324 4.316 15.64 0l15.638-15.638c4.315-4.315 4.315-11.323-.001-15.639l-174.12-174.12z" fill="#fff"/><path d="M343.274 169.152c4.315-4.315 4.315-11.322 0-15.638l-15.638-15.638c-4.316-4.316-11.323-4.316-15.639 0l-174.12 174.12c-4.316 4.316-4.316 11.324 0 15.64l15.638 15.638c4.315 4.315 11.323 4.315 15.639-.001l174.12-174.12z" fill="#fff"/></svg>