<svg width="18" height="19" xmlns="http://www.w3.org/2000/svg"><path d="M4.31 2.203a1.702 1.702 0 1 0-3.406 0v5.061h3.407v-5.06m-4.26 8.467h.853v6.198a1.702 1.702 0 1 0 3.407 0V10.67h.851V8.4H.052v2.271m10.504-8.468a1.702 1.702 0 1 0-3.406 0v9.225h3.407V2.202M6.298 14.835h.851v2.035a1.702 1.702 0 1 0 3.407 0v-2.036h.851v-2.27h-5.11v2.27M16.8 2.203A1.7 1.7 0 0 0 15.098.5a1.7 1.7 0 0 0-1.702 1.703v1.939H16.8v-1.94m.852 3.075h-5.11v2.271h.853v9.32a1.702 1.702 0 1 0 3.406 0v-9.32h.851V5.277" fill="#FFF" fill-rule="evenodd"/></svg>