<svg width="73" height="57" xmlns="http://www.w3.org/2000/svg"><g fill="#FFF" fill-rule="evenodd"><path d="M19.51 55.066v-.984a2.663 2.663 0 0 1-1.955-.84c-.497-.525-.81-1.258-.81-2.11 0-.855.313-1.587.81-2.113a2.661 2.661 0 0 1 1.954-.839h33.539a2.666 2.666 0 0 1 1.955.84c.497.525.81 1.258.81 2.111 0 .853-.313 1.586-.81 2.111-.5.524-1.174.838-1.955.84H19.509v1.967h33.539a4.597 4.597 0 0 0 3.351-1.442c.847-.891 1.355-2.125 1.354-3.476 0-1.35-.507-2.585-1.354-3.476a4.594 4.594 0 0 0-3.351-1.442H19.509a4.594 4.594 0 0 0-3.351 1.442c-.847.891-1.354 2.125-1.353 3.476-.001 1.35.506 2.585 1.353 3.476a4.595 4.595 0 0 0 3.351 1.442v-.983M44.03 11.295v-.984H25.12V3.426h17.94v7.87h.97v-.985.984H45V1.46H23.18v10.82H45v-.984h-.97m8.242 25.573v-.984H18.333V20.148h32.97v16.72h.969v-.983.984h.97V18.18H16.394v19.672h36.848v-.983h-.97"/><path d="M33.363 19.656h1.94v-8.36h-1.94zM14.967 39.16l.495-.841-11.858-6.734L.05 37.636l12.708 7.216 3.552-6.051-.85-.482-.494.842-.849-.482-2.069 3.525-9.31-5.288 1.574-2.682 10.16 5.77.494-.843-.849-.482.85.482"/><path d="M16.474 22.758L9.183 35.179l1.698.965 7.291-12.422M71.187 4.55l-.766-.607-7.127 9.257-2.438-1.932 6.532-8.484 3.203 2.54.596-.775-.766-.606.766.606.596-.773L67.049.023l-8.915 11.58 5.5 4.359 8.914-11.58-.765-.606-.596.773"/><path d="M52.931 26.751l10.367-13.473-1.531-1.213L51.4 25.538M25.347 46.9l5.496-8.402 2.343 3.583-.002-.002 3.13 4.819a.96.96 0 0 0 1.344.28.992.992 0 0 0 .276-1.362l-3.13-4.82-.002-.002-3.15-4.82a.968.968 0 0 0-.809-.44.968.968 0 0 0-.808.44l-6.304 9.639a.993.993 0 0 0 .272 1.364.962.962 0 0 0 1.344-.276"/><path d="M34.988 46.9l5.496-8.402 2.343 3.583-.002-.002 3.13 4.819a.96.96 0 0 0 1.344.28.993.993 0 0 0 .276-1.362l-3.13-4.82-.002-.002-3.15-4.82a.968.968 0 0 0-.809-.44.968.968 0 0 0-.808.44l-6.304 9.639a.992.992 0 0 0 .272 1.364.962.962 0 0 0 1.344-.276m-17.14-16.426H29c.535 0 .97-.44.97-.983a.976.976 0 0 0-.97-.984H17.848c-.536 0-.97.44-.97.984 0 .543.434.983.97.983m34.424-6.885H41.121c-.536 0-.97.44-.97.984 0 .543.434.983.97.983h11.151c.536 0 .97-.44.97-.983a.976.976 0 0 0-.97-.984"/></g></svg>