<svg width="19" height="16" xmlns="http://www.w3.org/2000/svg"><path d="M15.18 14.325c-.046.242-.355.437-.688.437h-.31c-.333 0-.58-.195-.547-.437l.525-3.996c.042-.326.402-.594.798-.594h.365c.398 0 .668.268.607.594l-.75 3.996zm-3.253 0c-.017.242-.303.437-.638.437h-.308c-.333 0-.603-.195-.599-.437l.05-3.996c.006-.326.33-.594.728-.594h.365c.398 0 .701.268.676.594l-.274 3.996zm-3.84.437H7.78c-.333 0-.625-.195-.65-.437l-.423-3.996c-.033-.326.26-.594.655-.594h.364c.4 0 .735.268.749.594l.195 3.996c.016.242-.247.437-.582.437zm-3.201 0h-.309c-.332 0-.649-.195-.701-.437L2.98 10.33c-.074-.326.187-.594.584-.594h.365c.396 0 .763.268.818.594l.668 3.996c.042.242-.197.437-.53.437zM8.69 3.192c.222.108.464.172.726.172.281 0 .54-.076.773-.197l3.695 3.698H5.02l3.671-3.673zm9.633 3.673H16.05l-4.97-4.97c.01-.07.024-.14.024-.213a1.684 1.684 0 0 0-3.368 0c0 .096.013.186.025.276L2.855 6.865H.581a.58.58 0 0 0-.581.58v.801c0 .32.261.58.581.58h.445l1.232 6.469c0 .275.222.496.495.496H16.15a.497.497 0 0 0 .497-.496l1.232-6.469h.444a.58.58 0 0 0 .581-.58v-.799a.575.575 0 0 0-.58-.582z" fill="#FFF" fill-rule="evenodd"/></svg>