<svg width="19" height="21" xmlns="http://www.w3.org/2000/svg" xmlns:xlink="http://www.w3.org/1999/xlink"><defs><path d="M9.621 5.819H9.61a1.736 1.736 0 0 1-.237-.078l-.085-.033-.091.008-.131.017a.076.076 0 0 1 .013-.018c.026-.04.051-.08.154-.112.188-.063.29-.15.324-.197a3.14 3.14 0 0 1 .286-.059l.16.107a.904.904 0 0 0 .212.178l-.608.175.015.012zM9.5 17.963a8.406 8.406 0 0 1-5.366-1.922 1.54 1.54 0 0 0 .173-.124l.198-.166-.176-.531.256-.809.021-.128c0-.309-.121-.665-.448-.73-.037-.014-.133-.166-.19-.206-.163-.12-.291-.293-.449-.293-.03 0-.112.046-.162.014-.044-.029-.102-.02-.164-.052-.038-.016-.1-.026-.092-.014a2.028 2.028 0 0 1-.214-.405c-.06-.163-.111-.245-.387-.555-.182-.206-.225-.251-.392-.329l-.07-.032c-.072-.035-.118-.07-.164-.103-.072-.052-.162-.118-.292-.171a.755.755 0 0 1-.251-.162 1.058 1.058 0 0 0-.137-.107A8.559 8.559 0 0 1 1.036 9.5l.001-.106c.085-.218.162-.588.125-.775a2.099 2.099 0 0 1 .045-.281c.031-.154.058-.307.055-.381.017-.064.13-.239.19-.331a2.17 2.17 0 0 0 .18-.314c.032-.077.207-.348.314-.51l.175-.277c.048-.073.155-.244.114-.433.2-.141.458-.325.491-.353.041-.041.386-.417.033-1.07-.011-.023.122-.039.116-.048.03-.055.21-.144.21-.265v-.028c0-.232.09-.415.294-.415h.127c.046 0 .09-.133.132-.14l.311.075.643-.27.069-.144s.068-.131.211-.234c.215-.153.279-.25.378-.414l-.305-.23.36.163c.042-.041.126-.323.345-.558.256-.273.403-.53.385-.53h.16l.113.07c.034-.038.177-.1.287-.248C8.06.915 9.677.849 11.2 1.16c-.201.004-.39.091-.678.228-.07.034-.132.077-.17.09-.066.016-.164.063-.269.11-.062.027-.18.082-.194.088-.26 0-.483.215-.662.447-.223.407-.169.65-.096.771l.145.259h.106c-.137 0-.266.203-.347.272l-.384-.475-.364-.765-.635.548v.284l-.39-.134-.394.824.562.774.223-.196v.054l.357-.091c-.01.09-.027.179.003.26L6.97 4.75l.09.388c.016.063.02.186.026.26-.144.567-.014.74.037.807l.094.103c-.132.134-.219.282-.263.355-.059.07-.167.192-.19.374a.867.867 0 0 1-.165.148l-.068.043c-.25.154-.484.307-.602.503-.147.247-.24.464-.276.645-.04.203-.04.36-.04.6 0 .071-.003.135-.007.192-.008.126-.016.258.012.428.062.365.564 1.02.57 1.028.157.197.343.417.558.544.112.068.256.187.315.237a.747.747 0 0 0 .802.188c.091-.035.184-.051.273-.073.164-.036.352-.077.536-.181.042-.024.081-.046.115-.062a.617.617 0 0 0 .732.257l.006-.003c.01.06.019.118.029.17.011.051.02.097.02.187-.007.129-.02.37.178.568.039.04.097.085.159.138.026.02.066.05.097.079.013.162.047.435.132.606.04.079.052.14.066.113a6.755 6.755 0 0 0-.229.581c-.088.398-.037.549-.022.593.062.19.178.368.354.544.021.022.032.053.052.13a.901.901 0 0 0 .141.32c.034.048.11.242.148.36l.048.266v.734l.435-.062s.715-.104.854-.14c.162-.041.71-.295.908-.492a.915.915 0 0 0 .18-.255c.027-.049.03-.055.055-.077.163-.129.458-.358.458-.358l.162-.123-.036-.555.274-.37.233-.236a3.863 3.863 0 0 0-.149.401.672.672 0 0 0 .13.584l.169.104h.185l.136.051a.93.93 0 0 0 .364-.221c.034-.032.065-.047.086-.062.208-.136.408-.486.457-.674l.132-.488a3.22 3.22 0 0 0 .076-.583c0-.137-.036-.29-.044-.32l-.238-.961-.666 1.252a1.467 1.467 0 0 0-.231.137.557.557 0 0 0-.011-.13 9.522 9.522 0 0 1-.08-.63c.048-.097.11-.212.144-.262a1.05 1.05 0 0 0 .127-.232c.034-.078.051-.116.106-.163.205-.17.342-.359.443-.497l.08-.105a9.37 9.37 0 0 0 .334-.46c.095-.14.159-.39.189-.524l.12-.55-.455.076c.054-.028.104-.052.138-.076.027-.018.073-.044.125-.074.209-.116.364-.206.46-.303l.205-.149c.178-.118.401-.267.43-.524.04.032.08.061.13.084.032.021.11.106.174.186.048.11.166.393.19.49.018.066.067.19.12.318.043.098.089.2.098.21 0 .085.039.343.183.506-.564 4.117-4.107 7.3-8.378 7.3zm1.797-11.806l.253.404-.02.003-.107.083c-.08.065-.685.042-.899-.046l-.028-.129.118.088.16-.027a.72.72 0 0 0 .523-.376zm.895-.173c.053.183.17.384.352.609l.072.099c.032.04.07.086.109.13a8.78 8.78 0 0 0-.422-.102l-.238-.724a.988.988 0 0 0 .127-.012zM9.5 0C4.262 0 0 4.26 0 9.5c0 5.238 4.262 9.499 9.5 9.499 5.239 0 9.5-4.261 9.5-9.5C19 4.262 14.738 0 9.5 0z" id="b"/><filter x="-50%" y="-50%" width="200%" height="200%" filterUnits="objectBoundingBox" id="a"><feOffset dy="2" in="SourceAlpha" result="shadowOffsetOuter1"/><feColorMatrix values="0 0 0 0 0 0 0 0 0 0 0 0 0 0 0 0 0 0 0.25 0" in="shadowOffsetOuter1"/></filter></defs><g fill="none" fill-rule="evenodd"><use fill="#000" filter="url(#a)" xlink:href="#b"/><use fill="#FFF" xlink:href="#b"/></g></svg>